<?xml version="1.0" standalone="no"?>
<!DOCTYPE svg PUBLIC "-//W3C//DTD SVG 1.1//EN" "http://www.w3.org/Graphics/SVG/1.1/DTD/svg11.dtd">
<svg xmlns="http://www.w3.org/2000/svg" id="Capa_3" data-name="Capa 3" viewBox="0 0 250 250" width="250" height="250"><defs><style>.cls-1{fill:#fff;}</style></defs><title>Icono</title><g id="En_Positivo" data-name="En Positivo"><g id="Mundo"><path class="cls-1" d="M125,25A100,100,0,1,1,25,125,100.11,100.11,0,0,1,125,25m0-25A125,125,0,1,0,250,125,125,125,0,0,0,125,0Z"/><path class="cls-1" d="M85.4,241.24a21.62,21.62,0,0,1-19.42-12l-8.89-17.8a21.76,21.76,0,0,1-2.3-9.73V174.12l-14.1-22.56A21.81,21.81,0,0,1,39,131.75l8.3-20.16a21.89,21.89,0,0,1,24-13.13l25.77,4.69A21.75,21.75,0,0,1,115,124.56v7.05l22.53,20.16a21.75,21.75,0,0,1-1.6,33.73l-22.63,16.68-7,23.48a21.65,21.65,0,0,1-19,15.5C86.7,241.21,86.05,241.24,85.4,241.24Zm-5.61-40.32,4.88,9.77L89.61,194a21.86,21.86,0,0,1,8-11.34l20.3-15L97.22,149.28A21.84,21.84,0,0,1,90,133.06v-5.8l-20.53-3.73-6.67,16.2,13.71,21.93a21.77,21.77,0,0,1,3.31,11.53Zm-9.35-79.81Zm-11.56-4.76h0Z"/><path class="cls-1" d="M93.35,85.84a21.47,21.47,0,0,1-2.77-.18L37.94,78.92a12.5,12.5,0,0,1,3.18-24.8l51.14,6.55L114.85,40a21.71,21.71,0,0,1,17.75-5.48L142.8,36l14-19.43A12.5,12.5,0,1,1,177.1,31.17l-15.18,21A21.68,21.68,0,0,1,141.23,61L130.6,59.48,108,80.13A21.7,21.7,0,0,1,93.35,85.84Z"/><path class="cls-1" d="M203,208.54A12.47,12.47,0,0,1,193.3,204l-18.57-22.7A21.69,21.69,0,0,1,170.81,161l7.5-23.91-11.73-37a21.89,21.89,0,0,1,5.71-22.3l27.83-26.59a12.5,12.5,0,1,1,17.27,18.08L191,94.41l11.43,36.07a21.63,21.63,0,0,1,0,13.08l-7.28,23.22,17.46,21.35A12.49,12.49,0,0,1,203,208.54Z"/></g></g></svg>