<?xml version="1.0" standalone="no"?>
<!DOCTYPE svg PUBLIC "-//W3C//DTD SVG 1.1//EN" "http://www.w3.org/Graphics/SVG/1.1/DTD/svg11.dtd">
<svg xmlns="http://www.w3.org/2000/svg" id="Capa_3" data-name="Capa 3" viewBox="0 0 250 250" width="250" height="250"><defs><style>.cls-1{fill:#fff;}</style></defs><title>Icono</title><g id="En_Positivo" data-name="En Positivo"><g id="Votar"><path class="cls-1" d="M171.67,182.3H138.6a12.5,12.5,0,1,1,0-25h20.57V25H54.31V157.3H93.14a12.5,12.5,0,0,1,0,25H41.81a12.5,12.5,0,0,1-12.5-12.5V12.5A12.5,12.5,0,0,1,41.81,0H171.67a12.5,12.5,0,0,1,12.5,12.5V169.8A12.5,12.5,0,0,1,171.67,182.3Z"/><path class="cls-1" d="M100.34,96.33h-.22a12.49,12.49,0,0,1-8.92-4L71.78,71.55A12.5,12.5,0,1,1,90.05,54.49l10.6,11.36,29.11-29.12a12.5,12.5,0,1,1,17.68,17.68L109.18,92.67A12.5,12.5,0,0,1,100.34,96.33Z"/><path class="cls-1" d="M103.32,250a12.5,12.5,0,0,1-11.38-7.32l-9.27-20.36a68.87,68.87,0,0,1-4.18-45.63l13.74-54.1a24.53,24.53,0,0,1,47.24-1.08c.06.2.12.4.17.6,1.91,7.67,3.35,15.88,4.74,23.81,1.76,10,4.38,24.92,7.16,29.1a12.5,12.5,0,0,1-9.43,23.1c-14.81-4.94-18.14-23.89-22.35-47.88-1.16-6.6-2.35-13.4-3.78-19.58l-13.26,52.19a43.73,43.73,0,0,0,2.68,29.05l6,13.1,63.39,0L192,188.71a37.58,37.58,0,0,0-8.48-44l-20.35-18.78a12.5,12.5,0,0,1,17-18.37l20.35,18.78a62.48,62.48,0,0,1,14.09,73.11l-20.66,43.39A12.52,12.52,0,0,1,182.65,250l-79.33,0Z"/></g></g></svg>