<?xml version="1.0" standalone="no"?>
<!DOCTYPE svg PUBLIC "-//W3C//DTD SVG 1.1//EN" "http://www.w3.org/Graphics/SVG/1.1/DTD/svg11.dtd">
<svg xmlns="http://www.w3.org/2000/svg" id="Capa_3" data-name="Capa 3" viewBox="0 0 250 250" width="250" height="250"><defs><style>.cls-1{fill:#fff;}</style></defs><title>Icono</title><g id="En_Positivo" data-name="En Positivo"><g id="Rosa_de_los_Vientos" data-name="Rosa de los Vientos"><path class="cls-1" d="M192.39,182.36l-10.87-34.6a4.53,4.53,0,0,1-5.25-.8,5.08,5.08,0,0,1-1.76.27c-3.83,0-7.83-.67-11.61.17a6.1,6.1,0,0,1-1.09.13,38.48,38.48,0,0,0-8.5,7.43c-5.47,6.73-7.17,16-10.57,23.84a3.86,3.86,0,0,1-.61.95l40.23,12.64A8,8,0,0,0,192.39,182.36Z"/><path class="cls-1" d="M106.19,168.45a5.24,5.24,0,0,1,.51-2.15,11.3,11.3,0,0,1-3.47-1.81c-4.41-3.66-6.66-9.2-11-13-2.71-2.37-5.26-4.59-6.93-7.46a43.26,43.26,0,0,1-8.79-3.55A37,37,0,0,1,72,142.29a5.21,5.21,0,0,1-1.89.26L57.61,182.36a8,8,0,0,0,10,10l39.63-12.45C105.55,176.42,106.08,172.34,106.19,168.45Z"/><path class="cls-1" d="M182.36,57.61,140.54,70.75c-.59,4.91-2.19,10.46,2.06,13.7A60.45,60.45,0,0,1,154.68,96c1.94,2.49,4,5,5.76,7.61.16.23.28.47.42.71a62.58,62.58,0,0,0,7.84,1.32,59.18,59.18,0,0,1,11.21,1.7l12.48-39.72A8,8,0,0,0,182.36,57.61Z"/><path class="cls-1" d="M105.17,84c0-4.92-.42-9.83-.41-14.74L67.64,57.61a8,8,0,0,0-10,10l11.28,35.9H69c6.84,0,12.78.09,18.4,2a5.35,5.35,0,0,1,1.54-1.62c5.16-3.56,12.78-9.73,17.38-16.7A4.71,4.71,0,0,1,105.17,84Z"/><circle class="cls-1" cx="125" cy="125" r="13"/><path class="cls-1" d="M125,250a12.51,12.51,0,0,1-11.93-8.76l-24.91-79.4L8.76,136.93a12.5,12.5,0,0,1,0-23.86l79.4-24.91,24.91-79.4a12.5,12.5,0,0,1,23.86,0l24.91,79.4,79.4,24.91a12.5,12.5,0,0,1,0,23.86l-79.4,24.91-24.91,79.4A12.51,12.51,0,0,1,125,250ZM54.25,125l47.62,14.94a12.51,12.51,0,0,1,8.19,8.19L125,195.75l14.94-47.62a12.51,12.51,0,0,1,8.19-8.19L195.75,125l-47.62-14.94a12.51,12.51,0,0,1-8.19-8.19L125,54.25l-14.94,47.62a12.51,12.51,0,0,1-8.19,8.19Z"/></g></g></svg>