<?xml version="1.0" standalone="no"?>
<!DOCTYPE svg PUBLIC "-//W3C//DTD SVG 1.1//EN" "http://www.w3.org/Graphics/SVG/1.1/DTD/svg11.dtd">
<svg xmlns="http://www.w3.org/2000/svg" id="Capa_3" data-name="Capa 3" viewBox="0 0 250 250" width="250" height="250"><defs><style>.cls-1{fill:#fff;}</style></defs><title>Icono</title><g id="En_Positivo" data-name="En Positivo"><g id="Sostenible"><path class="cls-1" d="M163.38,250c-3.74,0-8.23-.37-12.6-.73-3.48-.29-7.08-.59-9.21-.59a12.5,12.5,0,0,1,0-25c3.16,0,7.1.33,11.28.67a115.28,115.28,0,0,0,11.53.63c29.07-1.51,56.89-27.64,59.52-55.92C225,156.87,225,144.65,225,131.72c0-2.69,0-5.38,0-8.07-12.18-.09-23.28-.09-33.86,0-28.23.27-51.61,16.09-62.54,42.31a12.5,12.5,0,0,1-23.08-9.62c14.69-35.22,47.4-57.32,85.37-57.69,11.47-.11,23.53-.1,36.86,0s22.34,9,22.26,22.12c0,3.62,0,7.25,0,10.87,0,13,0,26.34-1.2,39.69-1.85,19.89-11.64,39.07-27.56,54s-35.5,23.52-55.55,24.57C165,250,164.18,250,163.38,250Z"/><path class="cls-1" d="M115.46,250q-.9,0-1.47,0c-37.35-2.14-64.56-26.27-71-63-1.45-8.28-1.18-16.32-.92-24.1.07-1.9.13-3.8.17-5.69.21-11.22,8.66-19.86,19.66-20.09,1.68,0,3.37-.08,5.05-.13,13.37-.39,28.53-.84,43.37,6,26.18,12.11,41.48,33.62,44.26,62.21a111.43,111.43,0,0,1,.24,14.24c0,1.63-.09,3.17-.09,4.52,0,.23,0,.45,0,.67l-.64,12.17a12.5,12.5,0,0,1-11.66,11.81C134.31,249.16,120.84,250,115.46,250ZM67.1,162,67,163.74c-.23,6.79-.45,13.21.56,18.92,4.46,25.42,21.9,40.86,47.82,42.34,1.43.05,7.38-.24,14.25-.63l0-.73c0-1.59,0-3.2.1-4.89a89.13,89.13,0,0,0-.13-11.11c-1.93-19.82-11.7-33.53-29.87-41.94-9.51-4.4-20.5-4.07-32.14-3.73Zm75.11,62h0Z"/><path class="cls-1" d="M146.84,207a12.5,12.5,0,0,1-7.57-22.45l34.86-26.5A12.5,12.5,0,0,1,189.26,178l-34.86,26.5A12.44,12.44,0,0,1,146.84,207Z"/><path class="cls-1" d="M141.56,248.66a12.41,12.41,0,0,1-8.56-3.4L93.07,207.68a12.5,12.5,0,1,1,17.13-18.2l39.93,37.58a12.5,12.5,0,0,1-8.57,21.6Z"/><path class="cls-1" d="M224.41,84.78H184.13a12.5,12.5,0,0,1,0-25h40.28a12.5,12.5,0,0,1,0,25Z"/><path class="cls-1" d="M224.41,84.78a12.5,12.5,0,0,1-12.5-12.5V32a12.5,12.5,0,1,1,25,0V72.28A12.5,12.5,0,0,1,224.41,84.78Z"/><path class="cls-1" d="M92.86,245.35a12.31,12.31,0,0,1-3.57-.53,126,126,0,0,1-64-44.43A123.87,123.87,0,0,1,0,125,125,125,0,0,1,235.44,66.41a12.5,12.5,0,0,1-22.07,11.73A100,100,0,1,0,96.43,220.86a12.51,12.51,0,0,1-3.57,24.49Z"/></g></g></svg>