<?xml version="1.0" standalone="no"?>
<!DOCTYPE svg PUBLIC "-//W3C//DTD SVG 1.1//EN" "http://www.w3.org/Graphics/SVG/1.1/DTD/svg11.dtd">
<svg xmlns="http://www.w3.org/2000/svg" id="Capa_3" data-name="Capa 3" viewBox="0 0 250 250" width="250" height="250"><defs><style>.cls-1{fill:#fff;}</style></defs><title>Icono</title><g id="En_Positivo" data-name="En Positivo"><g id="Mapa"><path class="cls-1" d="M125,250c-5.76,0-9.67-3.07-13.45-6-1.43-1.13-3.06-2.41-5.22-4a241.28,241.28,0,0,1-61.53-64.16C29.91,152.94,22.45,130.77,22,108c-.89-42.41,17.77-75.38,54-95.33a101.25,101.25,0,0,1,92.55-3,102,102,0,0,1,57.62,73.4A114.19,114.19,0,0,1,227.69,95c.09,1,.17,1.83.26,2.52a10.63,10.63,0,0,1,.08,1.25c.47,23.26-4.69,44.08-16.23,65.54-15.29,28.45-37.59,53.23-68.17,75.76-1.95,1.44-3.49,2.64-4.84,3.7-4,3.17-7.83,6.16-13.5,6.27Zm.09-225A76.49,76.49,0,0,0,88,34.6C59.69,50.21,46.26,74.06,47,107.51c.38,17.94,6.52,35.83,18.78,54.7A216.6,216.6,0,0,0,121,219.72c1.57,1.13,2.92,2.16,4.07,3.05,1.08-.84,2.33-1.8,3.78-2.87,27.54-20.28,47.48-42.35,61-67.46,9.33-17.35,13.55-34.09,13.27-52.64-.08-.73-.16-1.58-.25-2.5-.26-2.76-.58-6.18-1.21-9.37A78.36,78.36,0,0,0,125.07,25Z"/><path class="cls-1" d="M125,153.14a50,50,0,1,1,49.94-50.09h0a50,50,0,0,1-49.65,50.09Zm0-75h-.17A25.31,25.31,0,0,0,100,103.2a25,25,0,0,0,49.94,0h0a25.08,25.08,0,0,0-7.45-17.84A24.68,24.68,0,0,0,125,78.14Z"/></g></g></svg>