<?xml version="1.0" standalone="no"?>
<!DOCTYPE svg PUBLIC "-//W3C//DTD SVG 1.1//EN" "http://www.w3.org/Graphics/SVG/1.1/DTD/svg11.dtd">
<svg xmlns="http://www.w3.org/2000/svg" id="Capa_3" data-name="Capa 3" viewBox="0 0 250 250" width="250" height="250"><defs><style>.cls-1{fill:#fff;}</style></defs><title>Icono</title><g id="En_Positivo" data-name="En Positivo"><g id="Crecimiento"><path class="cls-1" d="M39.32,250a12.49,12.49,0,0,1-11.71-16.86l10.06-27a12.52,12.52,0,0,1,8.42-7.71l21.91-6,13.81-17a12.51,12.51,0,0,1,10.7-4.57l31,2.49,55.53-13.1a12.49,12.49,0,0,1,14.3,7.12l28.74,65.07a12.5,12.5,0,0,1-22.87,10.1L174.7,187l-47.33,11.17a12.91,12.91,0,0,1-3.87.29l-26.44-2.13-12.2,15a12.42,12.42,0,0,1-6.4,4.16l-19.59,5.36-7.83,21A12.5,12.5,0,0,1,39.32,250Z"/><path class="cls-1" d="M135.32,125.6c-3.09,0-6.71-.3-10.24-.6-2.72-.22-5.53-.46-7.12-.46a12.5,12.5,0,0,1,0-25c2.62,0,5.81.27,9.19.55,3.15.26,7.06.59,8.83.49,22-1.14,43-20.86,45-42.19.9-9.57.88-19.24.86-29.47V25c-8.7-.06-16.71-.05-24.38,0a50.82,50.82,0,0,0-46.27,29.48A12.5,12.5,0,0,1,88.59,43.78C101.51,16.69,127.15.35,157.18.06c9.14-.08,18.75-.08,29.38,0,12.18.11,20.32,8.22,20.25,20.18q0,4.31,0,8.63c0,10.36,0,21.08-1,31.83-3.17,33.95-33.92,63-68.56,64.84C136.66,125.58,136,125.6,135.32,125.6Z"/><path class="cls-1" d="M95.07,125.6c-.54,0-1,0-1.34,0C60.35,123.66,36,102.09,30.27,69.29c-1.3-7.38-1.06-14.49-.83-21.35.06-1.66.11-3.31.14-5,.21-10.66,8.25-18.87,18.72-19.08l4.4-.12C64.54,23.43,78,23,91.27,29.19c23.39,10.82,37.06,30,39.55,55.59A98.89,98.89,0,0,1,131,97.41c0,1.37-.07,2.68-.07,3.9,0,.22,0,.44,0,.66l-.56,10.63a12.5,12.5,0,0,1-11.67,11.81C111.64,124.88,99.86,125.6,95.07,125.6Zm23.39-24.29h0Zm-23.37-.7c1.26,0,5.65-.17,10.87-.47,0-1.1.05-2.25.08-3.44a78.77,78.77,0,0,0-.1-9.5c-1.65-16.92-9.64-28.14-25.17-35.32-7.7-3.56-16.36-3.43-26.34-3.14v0c-.2,5.85-.39,11.37.46,16.19C58.65,86.34,73.3,99.33,95.09,100.61Z"/><path class="cls-1" d="M122.16,91.42A12.5,12.5,0,0,1,114.58,69l27.75-21.09a12.5,12.5,0,0,1,15.13,19.9L129.71,88.87A12.43,12.43,0,0,1,122.16,91.42Z"/><path class="cls-1" d="M118,194.11a12.5,12.5,0,0,1-12.5-12.5V117.45L77.61,91.24A12.5,12.5,0,0,1,94.75,73l31.77,29.91a12.51,12.51,0,0,1,3.94,9.1v69.57A12.5,12.5,0,0,1,118,194.11Z"/></g></g></svg>